<svg xmlns="http://www.w3.org/2000/svg" version="1.1" xmlns:xlink="http://www.w3.org/1999/xlink" xmlns:svgjs="http://svgjs.com/svgjs" width="1400" height="1080" preserveAspectRatio="none" viewBox="0 0 1400 1080"><g mask="url(&quot;#SvgjsMask1572&quot;)" fill="none"><rect width="1400" height="1080" x="0" y="0" fill="rgba(253, 208, 100, 1)"></rect><path d="M308.03000000000003 172.13 L449.94000000000005 204.72L278.3063560380307 289.10364396196934z" fill="#e73635"></path><circle r="164.61464268036823" cx="595.29" cy="627.84" fill="rgba(76, 200, 234, 1)"></circle><rect width="168" height="168" clip-path="url(&quot;#SvgjsClipPath1573&quot;)" x="969.17" y="14.61" fill="url(#SvgjsPattern1574)" transform="rotate(99.69, 1053.17, 98.61)"></rect><rect width="564" height="564" clip-path="url(&quot;#SvgjsClipPath1575&quot;)" x="275.71" y="353.41" fill="url(#SvgjsPattern1576)" transform="rotate(91.73, 557.71, 635.41)"></rect><path d="M1053.51 1065.81L1040.77 1064.54 1039.21 1051.83 1026.47 1050.56 1024.91 1037.85 1012.17 1036.58 1010.62 1023.86M1059.11 1060.09L1046.36 1058.82 1044.81 1046.11 1032.06 1044.84 1030.51 1032.13 1017.77 1030.86 1016.21 1018.14" stroke="rgba(6, 158, 16, 1)" stroke-width="2.8" stroke-dasharray="2, 2"></path><path d="M954.4499999999999 861.9100000000001 L884.9599999999999 729.2800000000001L1016.7101102520068 698.5898897479932z" stroke="#e73635" stroke-width="2.6" stroke-dasharray="4, 4"></path></g><defs><mask id="SvgjsMask1572"><rect width="1400" height="1080" fill="#ffffff"></rect></mask><pattern x="0" y="0" width="6" height="6" patternUnits="userSpaceOnUse" id="SvgjsPattern1574"><path d="M3 1L3 5M1 3L5 3" stroke="#e73635" fill="none" stroke-width="1"></path></pattern><clipPath id="SvgjsClipPath1573"><circle r="42" cx="1053.17" cy="98.61"></circle></clipPath><pattern x="0" y="0" width="564" height="6" patternUnits="userSpaceOnUse" id="SvgjsPattern1576"><rect width="564" height="3" x="0" y="0" fill="rgba(27, 40, 185, 1)"></rect><rect width="564" height="3" x="0" y="3" fill="rgba(0, 0, 0, 0)"></rect></pattern><clipPath id="SvgjsClipPath1575"><circle r="141" cx="557.71" cy="635.41"></circle></clipPath></defs></svg>