<svg xmlns="http://www.w3.org/2000/svg" version="1.1" xmlns:xlink="http://www.w3.org/1999/xlink" xmlns:svgjs="http://svgjs.com/svgjs" width="1440" height="560" preserveAspectRatio="none" viewBox="0 0 1440 560"><g mask="url(&quot;#SvgjsMask1003&quot;)" fill="none"><rect width="1440" height="560" x="0" y="0" fill="rgba(222, 228, 103, 1)"></rect><path d="M720 685.72C823.26 679.81 904.25 610.31 981.05 541.05 1063.94 466.29 1162.99 391.42 1169.85 280 1176.96 164.71 1104.47 58.12 1015.36-15.36 933.86-82.58 825.64-90.02 720-90.94 613-91.89 503.01-87.34 419.37-20.63 326.52 53.42 253.32 161.24 254.88 280 256.44 397.71 338.52 495.39 427.23 572.77 509.17 644.24 611.44 691.94 720 685.72" fill="#1c538e"></path><path d="M720 542.53C786.81 538.7 839.22 493.73 888.92 448.92 942.55 400.54 1006.64 352.09 1011.08 280 1015.68 205.4 968.78 136.43 911.11 88.89 858.38 45.39 788.35 40.57 720 39.98 650.77 39.36 579.6 42.31 525.48 85.48 465.39 133.39 418.03 203.15 419.04 280 420.05 356.16 473.16 419.37 530.56 469.44 583.58 515.69 649.75 546.55 720 542.53" fill="#2774c6"></path><path d="M720 399.33C750.37 397.59 774.19 377.15 796.78 356.78 821.16 334.79 850.29 312.77 852.31 280 854.4 246.09 833.08 214.74 806.87 193.13 782.9 173.36 751.07 171.17 720 170.9 688.53 170.62 656.18 171.96 631.58 191.58 604.27 213.36 582.74 245.07 583.2 280 583.66 314.62 607.8 343.35 633.89 366.11 657.99 387.13 688.07 401.16 720 399.33" fill="#488fdb"></path></g><defs><mask id="SvgjsMask1003"><rect width="1440" height="560" fill="#ffffff"></rect></mask></defs></svg>