<svg xmlns="http://www.w3.org/2000/svg" version="1.1" xmlns:xlink="http://www.w3.org/1999/xlink" xmlns:svgjs="http://svgjs.com/svgjs" width="1440" height="564" preserveAspectRatio="none" viewBox="0 0 1440 564"><g mask="url(&quot;#SvgjsMask1972&quot;)" fill="none"><rect width="1440" height="564" x="0" y="0" fill="rgba(246, 194, 221, 1)"></rect><path d="M36 564L600 0L789 0L225 564z" fill="url(#SvgjsLinearGradient1973)"></path><path d="M338.8 564L902.8 0L1277.8 0L713.8 564z" fill="url(#SvgjsLinearGradient1973)"></path><path d="M670.6 564L1234.6 0L1498.6 0L934.6 564z" fill="url(#SvgjsLinearGradient1973)"></path><path d="M1388 564L824 0L485 0L1049 564z" fill="url(#SvgjsLinearGradient1974)"></path><path d="M1069.2 564L505.20000000000005 0L250.20000000000005 0L814.2 564z" fill="url(#SvgjsLinearGradient1974)"></path><path d="M767.4 564L203.39999999999998 0L132.89999999999998 0L696.9 564z" fill="url(#SvgjsLinearGradient1974)"></path><path d="M1121.5013398206247 564L1440 245.50133982062465L1440 564z" fill="url(#SvgjsLinearGradient1973)"></path><path d="M0 564L318.49866017937535 564L 0 245.50133982062465z" fill="url(#SvgjsLinearGradient1974)"></path></g><defs><mask id="SvgjsMask1972"><rect width="1440" height="564" fill="#ffffff"></rect></mask><linearGradient x1="0%" y1="100%" x2="100%" y2="0%" id="SvgjsLinearGradient1973"><stop stop-color="rgba(163, 73, 239, 0.2)" offset="0"></stop><stop stop-opacity="0" stop-color="rgba(163, 73, 239, 0.2)" offset="0.66"></stop></linearGradient><linearGradient x1="100%" y1="100%" x2="0%" y2="0%" id="SvgjsLinearGradient1974"><stop stop-color="rgba(163, 73, 239, 0.2)" offset="0"></stop><stop stop-opacity="0" stop-color="rgba(163, 73, 239, 0.2)" offset="0.66"></stop></linearGradient></defs></svg>