<svg xmlns="http://www.w3.org/2000/svg" version="1.1" xmlns:xlink="http://www.w3.org/1999/xlink" xmlns:svgjs="http://svgjs.com/svgjs" width="1920" height="915" preserveAspectRatio="none" viewBox="0 0 1920 915"><g mask="url(&quot;#SvgjsMask1036&quot;)" fill="none"><rect width="1920" height="915" x="0" y="0" fill="rgba(104, 168, 178, 1)"></rect><path d="M1670.404,406.496C1724.157,403.213,1765.052,362.295,1789.777,314.453C1812.31,270.852,1811.829,220.51,1788.968,177.08C1764.257,130.136,1723.238,92.467,1670.404,87.678C1608.202,82.04,1540.101,98.201,1507.683,151.586C1474.34,206.494,1488.227,276.61,1522.792,330.757C1554.685,380.718,1611.241,410.109,1670.404,406.496" fill="rgba(28, 83, 142, 0.4)" class="triangle-float2"></path><path d="M858.39 914.89 a181.44 181.44 0 1 0 362.88 0 a181.44 181.44 0 1 0 -362.88 0z" fill="rgba(28, 83, 142, 0.4)" class="triangle-float3"></path><path d="M414.003,464.828C486.617,463.643,557.535,435.158,595.475,373.232C635.099,308.557,637.605,226.941,600.156,160.983C562.249,94.217,490.769,52.282,414.003,53.607C339.368,54.895,276.567,102.92,238.657,167.223C200.053,232.702,183.384,313.84,221.97,379.33C260.093,444.033,338.914,466.054,414.003,464.828" fill="rgba(28, 83, 142, 0.4)" class="triangle-float3"></path><path d="M-76.89 567.09 a226.52 226.52 0 1 0 453.04 0 a226.52 226.52 0 1 0 -453.04 0z" fill="rgba(28, 83, 142, 0.4)" class="triangle-float2"></path><path d="M880.32 834.78 a290.99 290.99 0 1 0 581.98 0 a290.99 290.99 0 1 0 -581.98 0z" fill="rgba(28, 83, 142, 0.4)" class="triangle-float1"></path><path d="M308.73 727.76 a166.81 166.81 0 1 0 333.62 0 a166.81 166.81 0 1 0 -333.62 0z" fill="rgba(28, 83, 142, 0.4)" class="triangle-float3"></path><path d="M598.542336821967 913.3807279193923L791.6144788012899 926.8816472831111 805.1153981650089 733.8095053037881 612.0432561856858 720.3085859400693z" fill="rgba(28, 83, 142, 0.4)" class="triangle-float2"></path><path d="M736.9924834456722 318.9417257257643L801.8845405812274 158.32824821841245 641.2710630738756 93.43619108285725 576.3790059383203 254.04966859020908z" fill="rgba(28, 83, 142, 0.4)" class="triangle-float3"></path><path d="M1289.34 631.92 a202.23 202.23 0 1 0 404.46 0 a202.23 202.23 0 1 0 -404.46 0z" fill="rgba(28, 83, 142, 0.4)" class="triangle-float2"></path></g><defs><mask id="SvgjsMask1036"><rect width="1920" height="915" fill="#ffffff"></rect></mask><style>
            @keyframes float1 {
                0%{transform: translate(0, 0)}
                50%{transform: translate(-10px, 0)}
                100%{transform: translate(0, 0)}
            }

            .triangle-float1 {
                animation: float1 5s infinite;
            }

            @keyframes float2 {
                0%{transform: translate(0, 0)}
                50%{transform: translate(-5px, -5px)}
                100%{transform: translate(0, 0)}
            }

            .triangle-float2 {
                animation: float2 4s infinite;
            }

            @keyframes float3 {
                0%{transform: translate(0, 0)}
                50%{transform: translate(0, -10px)}
                100%{transform: translate(0, 0)}
            }

            .triangle-float3 {
                animation: float3 6s infinite;
            }
        </style></defs></svg>